<svg id="Layer_1" data-name="Layer 1" xmlns="http://www.w3.org/2000/svg" viewBox="0 0 292.3 535.14"><defs><style>.cls-1{fill:#fff;stroke:#000;stroke-width:0.75px;}.cls-1,.cls-3{stroke-miterlimit:10;}.cls-2{fill:#007bff;}.cls-3{fill:none;stroke:#fff;stroke-width:10px;}</style></defs><title>azul-seta</title><path class="cls-1" d="M110.72,148.57"/><path class="cls-2" d="M99.21,147.57H24.29C8.86,147.57,0,162.43,0,174.29V490.86c0,29.71,5.43,44.28,45.43,44.28h197.5c38.5,0,49.36-4.28,49.36-44.85V253.43c0-5.75-.66-6.07-6.23-6H203.24l-12.38-.14,0-14.29.26-85.43H165.71l.46,42.43a12.4,12.4,0,0,1-12.36,12.43h-30a12.4,12.4,0,0,1-12.36-12.5l.09-42.36Z"/><polygon class="cls-2" points="197.72 148.57 197.72 240.29 289.01 240.29 197.72 148.57"/><path class="cls-3" d="M125.47,234.35c-2.67,19.85-1.32,47.94,22.54,99.94s93.57,68,101,60,7.43-19.43-5.65-25.72c-14.19-6.82-141.21,28.57-152.07,37.14s-64.57,33.72-45.42,53.87C74.91,490.14,148,278.89,148,240.29,148,206.86,127.86,216.57,125.47,234.35Z"/><polygon class="cls-2" points="118.44 130.57 118.44 194.43 157.44 194.43 157.44 130.57 211.86 130.57 139.44 0 62.72 129.43 118.44 130.57"/></svg>