<?xml version="1.0" encoding="utf-8"?>
<!-- Generator: Adobe Illustrator 23.0.5, SVG Export Plug-In . SVG Version: 6.00 Build 0)  -->
<svg version="1.1" id="Layer_1" xmlns="http://www.w3.org/2000/svg" xmlns:xlink="http://www.w3.org/1999/xlink" x="0px" y="0px"
	 viewBox="0 0 585 585" style="enable-background:new 0 0 585 585;" xml:space="preserve">
<style type="text/css">
	.st0{fill:#007BFF;}
	.st1{fill:none;stroke:#FFFFFF;stroke-width:11;stroke-miterlimit:10;}
	.st2{fill:none;stroke:#FFFFFF;stroke-width:7;stroke-miterlimit:10;}
</style>
<circle class="st0" cx="292.5" cy="292.5" r="292.5"/>
<path class="st1" d="M483.9,417.5H108.1c-11.93,0-21.6-9.67-21.6-21.6V184.1c0-11.93,9.67-21.6,21.6-21.6h375.8
	c11.93,0,21.6,9.67,21.6,21.6v211.8C505.5,407.83,495.83,417.5,483.9,417.5z"/>
<path class="st2" d="M97.52,156.3c0-5.96,9.67-10.8,21.6-10.8h351.36c11.93,0,21.6,4.84,21.6,10.8"/>
<circle class="st1" cx="185.5" cy="258.5" r="29"/>
<path class="st1" d="M227.5,328.99c0-23.23-18.83-42.06-42.06-42.06s-42.06,18.83-42.06,42.06"/>
<line class="st1" x1="262" y1="236.5" x2="446" y2="236.5"/>
<line class="st1" x1="265" y1="265.5" x2="395" y2="265.5"/>
<line class="st1" x1="265" y1="297.5" x2="426" y2="297.5"/>
<line class="st1" x1="265" y1="330.5" x2="395" y2="330.5"/>
<line class="st1" x1="419" y1="395.5" x2="477" y2="395.5"/>
<line class="st1" x1="114" y1="395.5" x2="384" y2="395.5"/>
</svg>
