<?xml version="1.0" encoding="iso-8859-1"?>
<!-- Generator: Adobe Illustrator 19.0.0, SVG Export Plug-In . SVG Version: 6.00 Build 0)  -->
<svg version="1.1" xmlns="http://www.w3.org/2000/svg" xmlns:xlink="http://www.w3.org/1999/xlink" x="0px" y="0px"
	 viewBox="0 0 530 137.7" enable-background="new 0 0 530 137.7" xml:space="preserve">
<g id="Icone_Amarelo">
	<rect x="396.9" y="51.7" fill="#DB9531" width="25.4" height="23.3"/>
</g>
<g id="Telhado">
	<polygon fill="#DB9531" points="360.4,19.9 363.7,29.3 409.6,12.4 456,29.3 459.4,19.9 447.9,15.6 447.9,0 435.9,0 435.9,11.1 
		409.6,1.7 	"/>
</g>
<g id="SISTEMAS">
	<text transform="matrix(1 0 0 1 0 137.3905)" fill="#FFFFFF" font-family="'Calibri'" font-size="30.6567px">S</text>
	<text transform="matrix(1 0 0 1 20 137.3905)" fill="#FFFFFF" font-family="'Calibri'" font-size="30.6567px">I</text>
	<text transform="matrix(1 0 0 1 34 137.3905)" fill="#FFFFFF" font-family="'Calibri'" font-size="30.6567px">S</text>
	<text transform="matrix(1 0 0 1 54 137.3905)" fill="#FFFFFF" font-family="'Calibri'" font-size="30.6567px">T</text>
	<text transform="matrix(1 0 0 1 75 137.3905)" fill="#FFFFFF" font-family="'Calibri'" font-size="30.6567px">E</text>
	<text transform="matrix(1 0 0 1 97 137.3905)" fill="#FFFFFF" font-family="'Calibri'" font-size="30.6567px">M</text>
	<text transform="matrix(1 0 0 1 129 137.3905)" fill="#FFFFFF" font-family="'Calibri'" font-size="30.6567px">A</text>
	<text transform="matrix(1 0 0 1 153 137.3905)" fill="#FFFFFF" font-family="'Calibri'" font-size="30.6567px">S</text>
</g>
<g id="DOMMUS">
	<g>
		<path fill="#FFFFFF" d="M80.2,47c-0.7-2.9-1.9-5.2-3.5-7c-1.6-1.8-3.9-3-6.7-3.8c-2.8-0.7-6.3-1.1-10.5-1.1H1v46.4h13.7V48.9h44.8
			c3,0,5.2,0.6,6.4,1.9c1.2,1.3,1.8,3.6,1.8,7v24.5c0,3.4-0.6,5.8-1.8,7c-1.2,1.2-3.3,1.8-6.4,1.8H1v13.6h58.5
			c4.2,0,7.8-0.4,10.5-1.1c2.8-0.7,5-2,6.7-3.7c1.7-1.8,2.8-4.1,3.5-7c0.7-2.9,1.1-6.5,1.1-10.7V57.7C81.3,53.5,80.9,49.9,80.2,47z"
			/>
		<path fill="#FFFFFF" d="M114.7,104.7c-4.2,0-7.7-0.4-10.5-1.1c-2.8-0.7-5-2-6.7-3.7c-1.7-1.8-2.9-4.1-3.5-7c-0.7-2.9-1-6.5-1-10.7
			V57.7c0-4.2,0.3-7.8,1-10.7c0.7-2.9,1.9-5.2,3.5-7c1.7-1.8,3.9-3,6.7-3.7c2.8-0.7,6.3-1.1,10.5-1.1h36.7c4.1,0,7.6,0.4,10.4,1.1
			c2.8,0.7,5,2,6.7,3.7c1.7,1.8,2.9,4.1,3.6,7c0.7,2.9,1.1,6.5,1.1,10.7v24.4c0,4.2-0.4,7.8-1.1,10.7c-0.7,2.9-1.9,5.2-3.6,7
			c-1.7,1.8-3.9,3-6.7,3.7c-2.8,0.7-6.2,1.1-10.4,1.1H114.7z M159.5,57.8c0-3.4-0.6-5.8-1.8-7c-1.2-1.2-3.3-1.9-6.4-1.9h-36.6
			c-3,0-5.2,0.6-6.4,1.9c-1.2,1.2-1.8,3.6-1.8,7v24.4c0,1.8,0.1,3.2,0.4,4.3c0.3,1.1,0.7,2,1.4,2.7c0.6,0.7,1.5,1.1,2.5,1.4
			c1,0.3,2.3,0.4,3.9,0.4h36.6c3.1,0,5.2-0.6,6.4-1.8c1.2-1.2,1.8-3.5,1.8-7V57.8z"/>
		<path fill="#FFFFFF" d="M254.1,104.7V59.2l-22,45.5h-12.6l-21.9-45.5v45.5H185V35.2H200l26,55.5L252,35.2h14.6v69.5H254.1z"/>
		<path fill="#FFFFFF" d="M347.5,104.7V59.2l-22,45.5h-12.6L291,59.2v45.5h-12.5V35.2h14.9l26,55.5l26.1-55.5h14.6v69.5H347.5z"/>
		<path fill="#FFFFFF" d="M392.8,104.7c-3.8,0-7.1-0.4-9.7-1.2c-2.7-0.8-4.8-2.1-6.5-3.9c-1.7-1.8-2.8-4.1-3.6-6.8
			c-0.7-2.8-1.1-6.1-1.1-10.1V35.2h13.5v47.5c0,3,0.6,5.1,1.7,6.4c1.1,1.3,3,2,5.7,2h33.9c2.7,0,4.6-0.7,5.7-2
			c1.1-1.3,1.7-3.5,1.7-6.4V35.2h13.6v47.5c0,4-0.4,7.3-1.1,10.1c-0.7,2.8-1.9,5-3.6,6.8c-1.7,1.8-3.8,3.1-6.5,3.9
			c-2.7,0.8-6,1.2-9.8,1.2H392.8z"/>
		<path fill="#FFFFFF" d="M531.2,84.6c0,3.7-0.4,6.8-1.2,9.4c-0.8,2.6-2.1,4.6-3.9,6.2c-1.8,1.6-4.1,2.7-7,3.4
			c-2.9,0.7-6.4,1.1-10.5,1.1h-49.1c0.1-2.3,0.3-4.6,0.5-6.8c0.2-2.3,0.3-4.5,0.5-6.8h47.3c1.8,0,3.3-0.1,4.6-0.4
			c1.2-0.2,2.2-0.7,2.9-1.3s1.2-1.4,1.5-2.4c0.3-1,0.5-2.2,0.5-3.7c0-2.9-0.6-4.9-1.9-6c-1.3-1.1-3.7-1.7-7.3-1.7h-28.2
			c-4.2,0-7.7-0.4-10.5-1.1c-2.8-0.7-5-1.9-6.8-3.4c-1.7-1.5-2.9-3.5-3.7-5.9c-0.7-2.4-1.1-5.1-1.1-8.3v-2.3c0-3.4,0.4-6.4,1.1-8.9
			c0.7-2.5,2-4.5,3.7-6.1c1.8-1.5,4.1-2.7,6.9-3.4c2.9-0.7,6.4-1.1,10.7-1.1h48.7c-0.3,2.4-0.5,4.7-0.8,6.9
			c-0.3,2.3-0.6,4.6-0.9,6.9h-47c-3.4,0-5.6,0.6-6.8,1.7c-1.2,1.1-1.8,3.1-1.8,5.9c0,2.8,0.6,4.7,1.8,5.9c1.2,1.2,3.4,1.8,6.8,1.8
			H508c4.3,0,7.9,0.4,10.9,1.1c3,0.7,5.4,1.8,7.2,3.3c1.8,1.5,3.1,3.3,3.9,5.6c0.8,2.3,1.2,4.9,1.2,7.9V84.6z"/>
	</g>
</g>
<g id="Linhas_Guias">
</g>
</svg>
